<?xml version="1.0" encoding="utf-8"?>
<!-- Generator: Adobe Illustrator 19.2.1, SVG Export Plug-In . SVG Version: 6.00 Build 0)  -->
<svg version="1.1" id="Layer_1" xmlns="http://www.w3.org/2000/svg" xmlns:xlink="http://www.w3.org/1999/xlink" x="0px" y="0px"
	 viewBox="0 0 284 31" style="enable-background:new 0 0 284 31;" xml:space="preserve">
<style type="text/css">
	.st0{fill:#4B4B4B;}
	.st1{fill:#484848;}
</style>
<path class="st0" d="M10.7,3.4v21.9H9.6V3.4H2v-1h16.4v1H10.7L10.7,3.4z M38.7,15.4l7,9.9h-1.4l-6.9-9.9H32v9.9h-1.1V2.4h7.8
	c3.7,0,6.7,2.3,6.7,6.5S42.4,15.4,38.7,15.4L38.7,15.4z M38.7,3.4H32v11h6.8c3.4,0,5.5-2.3,5.5-5.5C44.2,5.7,42.1,3.4,38.7,3.4
	L38.7,3.4z M75.1,25.3l-2.3-5.6h-12l-2.3,5.6h-2.3l9.3-22.9H68l9.3,22.9H75.1L75.1,25.3z M66.8,4.5l-5.4,13.4h10.7L66.8,4.5
	L66.8,4.5z M105,25.3L90.7,5.6v19.7h-2V2.4h2l14.2,19.4V2.4h2v22.9H105L105,25.3z M127.5,4.6c-2.7,0-4.7,1.5-4.7,3.7
	c0,5.1,13.4,2.2,13.4,10.7c0,3.3-2.3,6.7-8.4,6.7c-3.9,0-6.8-1.5-8.7-3.7l1.7-2.2c1.5,1.7,3.9,3.3,7.1,3.3c4,0,5.4-2.2,5.4-3.9
	c0-5.9-13.4-2.6-13.4-10.8c0-3.8,3.4-6.3,7.8-6.3c3.5,0,6.2,1.1,8.1,3.2L134,7.3C132.4,5.4,130,4.6,127.5,4.6L127.5,4.6z M151.5,4.9
	v7.4h11.8v2.5h-11.8v10.4h-2.8V2.4h14.9v2.5H151.5L151.5,4.9z M185.9,25.7c-6.8,0-11.6-5-11.6-11.8S179.1,2,185.9,2
	s11.6,5,11.6,11.8S192.7,25.7,185.9,25.7L185.9,25.7z M185.9,5.6c-4.6,0-7.5,3.5-7.5,8.3c0,4.7,2.9,8.3,7.5,8.3
	c4.5,0,7.5-3.6,7.5-8.3C193.4,9.1,190.5,5.6,185.9,5.6L185.9,5.6z M222.6,16.6l5.1,8.7h-5.6l-4.5-8.2h-3.5v8.2h-4.8V2.4H220
	c4.7,0,7.6,3.1,7.6,7.4C227.6,13.8,225.1,16,222.6,16.6L222.6,16.6z M219.2,6.7h-5.1v6.2h5.1c2,0,3.4-1.1,3.4-3.1
	C222.6,7.8,221.2,6.7,219.2,6.7L219.2,6.7z M259.1,25.3V10.4l-5.7,14.9h-2.6l-5.7-14.9v14.9h-5.9V2.4h8.1l4.7,12.4l4.8-12.4h8.1
	v22.9H259.1L259.1,25.3z"/>
<g>
	<path class="st1" d="M279.3,4.9c0,1.3-1.1,2.4-2.4,2.4s-2.4-1.1-2.4-2.4s1.1-2.4,2.5-2.4C278.2,2.6,279.3,3.6,279.3,4.9z
		 M275.1,4.9c0,1.1,0.8,1.9,1.9,1.9c1,0,1.8-0.8,1.8-1.9c0-1.1-0.8-1.9-1.8-1.9C275.9,3,275.1,3.9,275.1,4.9z M276.5,6.1H276V3.8
		c0.2,0,0.5-0.1,0.9-0.1c0.5,0,0.6,0.1,0.8,0.2c0.1,0.1,0.3,0.3,0.3,0.5c0,0.3-0.2,0.5-0.5,0.6v0c0.2,0.1,0.3,0.3,0.4,0.6
		s0.1,0.5,0.2,0.6h-0.6c-0.1-0.1-0.1-0.3-0.2-0.6c0-0.3-0.2-0.4-0.5-0.4h-0.3L276.5,6.1L276.5,6.1z M276.5,4.8h0.3
		c0.3,0,0.6-0.1,0.6-0.3c0-0.2-0.2-0.3-0.5-0.3c-0.1,0-0.3,0-0.3,0L276.5,4.8L276.5,4.8z"/>
</g>
</svg>
